<?xml version="1.0" encoding="UTF-8" standalone="no"?>
<!DOCTYPE svg PUBLIC "-//W3C//DTD SVG 1.1//EN" "http://www.w3.org/Graphics/SVG/1.1/DTD/svg11.dtd">
<svg width="100%" height="100%" viewBox="0 0 4961 3508" version="1.1" xmlns="http://www.w3.org/2000/svg" xmlns:xlink="http://www.w3.org/1999/xlink" style="fill-rule:evenodd;clip-rule:evenodd;stroke-linejoin:round;stroke-miterlimit:2; background-color: #ffffff;">

    <defs>
        <!-- The Sheen Gradient: A subtle, white gloss reflection -->
        <linearGradient id="luxury-sheen" x1="0%" y1="0%" x2="100%" y2="100%">
            <stop offset="0%" stop-color="white" stop-opacity="0"/>
            <stop offset="45%" stop-color="white" stop-opacity="0"/>
            <stop offset="50%" stop-color="white" stop-opacity="0.4"/> <!-- Very subtle highlight -->
            <stop offset="55%" stop-color="white" stop-opacity="0"/>
            <stop offset="100%" stop-color="white" stop-opacity="0"/>
        </linearGradient>

        <!-- Mask to keep the sheen ONLY on the logo -->
        <mask id="logo-mask">
            <g transform="matrix(14.313955,0,0,14.313955,1552.560202,1070.757855)">
                 <!-- Replicating paths for the mask -->
                 <path d="M62.001,10.508C61.189,13.676 60.894,13.548 59.567,16.533C59.052,17.692 56.572,22.86 56.309,23.408C52.814,30.691 51.246,29.998 41.5,29.983C30.562,29.966 30.381,30.251 28.282,28.855C28.28,28.854 26.824,28.934 23.593,21.454C21.736,17.156 17.426,11.152 19.547,8.539C20.605,7.234 22.14,7.451 34.5,7.451C59.389,7.453 59.459,7.419 60.296,7.897C61.859,8.789 61.984,10.463 62.001,10.508L37.584,14.118C33.904,12.458 33.815,12.722 33.492,12.715C29.833,12.64 29.617,14.323 29.679,16.504C29.781,20.115 29.637,20.135 29.766,20.42C30.414,21.861 31.185,21.302 31.297,21.221C31.297,21.221 31.754,19.853 31.794,19.734C33.06,18.966 33.037,18.847 33.144,18.915C33.419,19.089 33.304,19.184 33.551,19.377C33.772,19.551 34.067,19.619 34.278,19.804C34.441,19.946 34.502,20.177 34.647,20.336C36.649,22.527 37.974,21.569 38.49,21.557C38.694,21.553 40.786,22.015 41.509,21.957C41.86,21.928 42.193,21.77 42.544,21.742C42.492,20.992 42.44,20.241 42.387,19.491C42.26,19.517 41.73,20.106 40.469,19.885C37.041,19.284 36.186,19.89 36.321,18.474C36.392,17.735 37.227,17.268 37.341,17.204C37.635,17.039 37.986,16.994 38.281,16.829C38.048,15.926 37.816,15.022 37.584,14.118L62.001,10.508L40.464,13.035C40.139,13.179 39.772,13.212 39.447,13.356C38.269,13.877 38.423,14.113 38.317,14.141C38.08,14.203 37.82,14.056 37.584,14.118C37.816,15.022 38.048,15.926 38.281,16.829C39.757,17.945 39.803,17.838 41.525,18.456C42.317,18.74 42.384,19.487 42.387,19.491C42.44,20.241 42.492,20.992 42.544,21.742C43.163,21.504 43.781,21.266 44.4,21.028C44.408,20.862 44.52,20.712 44.528,20.546C44.536,20.387 44.518,20.399 44.395,18.564C44.213,18.33 44.14,17.639 42.67,17.001C42.28,16.832 41.87,16.715 41.474,16.561C40.282,16.098 40.542,15.775 40.239,15.52C40.314,14.692 40.389,13.863 40.464,13.035L62.001,10.508L45.746,13.97C45.183,15.604 44.638,15.836 45.842,17.068C46.468,17.708 46.555,17.556 48.565,18.388C49.618,18.823 49.352,19.337 49.486,19.499C49.814,20.144 50.141,20.79 50.469,21.435C50.737,21.059 51.197,20.849 51.465,20.473C52.286,19.322 51.508,17.437 50.132,16.951C48.039,16.211 47.641,16.56 47.395,15.501C47.319,15.175 47.563,14.826 47.487,14.5L46.482,13.458L45.746,13.97L62.001,10.508L44.395,18.564C44.518,20.399 44.536,20.387 44.528,20.546C44.52,20.712 44.408,20.862 44.4,21.028C46.304,21.579 46.291,21.576 46.456,21.623C49.296,22.423 49.806,21.619 50.469,21.435C50.141,20.79 49.814,20.144 49.486,19.499C49.056,19.572 49.102,20.011 47.455,19.846C46.145,19.714 46.22,19.487 44.395,18.564L62.001,10.508L46.482,13.458L47.487,14.5C48.096,14.648 48.04,14.759 48.639,14.904C48.77,14.936 49.985,15.232 50.295,15.183C50.693,15.12 51.079,14.835 51.282,14.488C51.598,13.948 50.66,13.458 50.569,13.411C48.438,12.297 47.435,13.158 46.482,13.458L62.001,10.508L40.464,13.035C40.389,13.863 40.314,14.692 40.239,15.52C40.48,15.413 40.964,14.701 42.763,14.995C43.007,15.035 43.276,15.375 43.47,15.221C43.581,15.133 43.474,15.104 43.53,13.454C42.914,13.267 42.984,13.145 42.378,12.961C42.309,12.94 41.899,12.816 41.48,12.832C41.135,12.845 40.809,13.022 40.464,13.035L46.5,26.933Z" style="fill:white;"/>
                 <path d="M46.5,26.933C32.022,26.955 31.879,27.146 30.695,26.23C28.69,24.68 28.4,23.063 23.893,14.304C23.785,14.094 22.769,12.119 22.819,11.551C22.833,11.391 23.078,11.359 23.194,11.248C24.093,10.388 24.247,10.792 25.502,10.81C27.4,10.838 33.965,10.756 52.5,10.813C54.327,10.818 57.444,10.503 57.626,11.448C57.791,12.3 57.642,12.309 53.29,21.397C50.65,26.909 49.982,26.802 46.5,26.933L37.584,14.118C33.904,12.458 33.815,12.722 33.492,12.715C29.833,12.64 29.617,14.323 29.679,16.504C29.781,20.115 29.637,20.135 29.766,20.42C30.414,21.861 31.185,21.302 31.297,21.221C31.297,21.221 31.754,19.853 31.794,19.734C33.06,18.966 33.037,18.847 33.144,18.915C33.419,19.089 33.304,19.184 33.551,19.377C33.772,19.551 34.067,19.619 34.278,19.804C34.441,19.946 34.502,20.177 34.647,20.336C36.649,22.527 37.974,21.569 38.49,21.557C38.694,21.553 40.786,22.015 41.509,21.957C41.86,21.928 42.193,21.77 42.544,21.742C42.492,20.992 42.44,20.241 42.387,19.491C42.26,19.517 41.73,20.106 40.469,19.885C37.041,19.284 36.186,19.89 36.321,18.474C36.392,17.735 37.227,17.268 37.341,17.204C37.635,17.039 37.986,16.994 38.281,16.829C38.048,15.926 37.816,15.022 37.584,14.118L46.5,26.933L40.464,13.035C40.139,13.179 39.772,13.212 39.447,13.356C38.269,13.877 38.423,14.113 38.317,14.141C38.08,14.203 37.82,14.056 37.584,14.118C37.816,15.022 38.048,15.926 38.281,16.829C39.757,17.945 39.803,17.838 41.525,18.456C42.317,18.74 42.384,19.487 42.387,19.491C42.44,20.241 42.492,20.992 42.544,21.742C43.163,21.504 43.781,21.266 44.4,21.028C44.408,20.862 44.52,20.712 44.528,20.546C44.536,20.387 44.518,20.399 44.395,18.564C44.213,18.33 44.14,17.639 42.67,17.001C42.28,16.832 41.87,16.715 41.474,16.561C40.282,16.098 40.542,15.775 40.239,15.52C40.314,14.692 40.389,13.863 40.464,13.035L46.5,26.933L45.746,13.97C45.183,15.604 44.638,15.836 45.842,17.068C46.468,17.708 46.555,17.556 48.565,18.388C49.618,18.823 49.352,19.337 49.486,19.499C49.814,20.144 50.141,20.79 50.469,21.435C50.737,21.059 51.197,20.849 51.465,20.473C52.286,19.322 51.508,17.437 50.132,16.951C48.039,16.211 47.641,16.56 47.395,15.501C47.319,15.175 47.563,14.826 47.487,14.5L46.482,13.458L45.746,13.97L46.5,26.933L44.395,18.564C44.518,20.399 44.536,20.387 44.528,20.546C44.52,20.712 44.408,20.862 44.4,21.028C46.304,21.579 46.291,21.576 46.456,21.623C49.296,22.423 49.806,21.619 50.469,21.435C50.141,20.79 49.814,20.144 49.486,19.499C49.056,19.572 49.102,20.011 47.455,19.846C46.145,19.714 46.22,19.487 44.395,18.564L46.5,26.933L46.482,13.458L47.487,14.5C48.096,14.648 48.04,14.759 48.639,14.904C48.77,14.936 49.985,15.232 50.295,15.183C50.693,15.12 51.079,14.835 51.282,14.488C51.598,13.948 50.66,13.458 50.569,13.411C48.438,12.297 47.435,13.158 46.482,13.458L46.5,26.933L40.464,13.035C40.389,13.863 40.314,14.692 40.239,15.52C40.48,15.413 40.964,14.701 42.763,14.995C43.007,15.035 43.276,15.375 43.47,15.221C43.581,15.133 43.474,15.104 43.53,13.454C42.914,13.267 42.984,13.145 42.378,12.961C42.309,12.94 41.899,12.816 41.48,12.832C41.135,12.845 40.809,13.022 40.464,13.035L46.5,26.933Z" style="fill:white;"/>
                 <!-- ... (All other paths repeated here for mask, but omitted for brevity in SVG structure, using the visible group below for display) ... -->
            </g>
        </mask>
    </defs>

    <style>
        /*
           THE SECRET SAUCE:
           1. Cubic-Bezier (0.19, 1, 0.22, 1) -> This is the "Apple" ease. Extremely fast start, very long settle.
           2. Blur-in -> Simulates a camera rack focus.
           3. Letter-spacing simulation -> Elements move closer together as they appear.
        */
        :root {
            --premium-ease: cubic-bezier(0.19, 1, 0.22, 1);
        }

        #Rss-logo-group path {
            opacity: 0;
            transform-box: fill-box;
            transform-origin: center;
            /* Start state: slightly down, slightly scaled up, and blurry */
            transform: translateY(60px) scale(1.1);
            filter: blur(4px); /* The "Focus Pull" */

            animation: cinematicFocus 1.8s var(--premium-ease) forwards;
        }

        /*
           Micro-Staggering
           Instead of a linear wave, we group them slightly to feel like distinct components assembling.
        */
        /* Blue parts (Left) */
        #Rss-logo-group path:nth-child(1),
        #Rss-logo-group path:nth-child(4),
        #Rss-logo-group path:nth-child(5) { animation-delay: 0.1s; }

        /* Orange/Yellow parts (Right/Center) */
        #Rss-logo-group path:nth-child(2),
        #Rss-logo-group path:nth-child(15),
        #Rss-logo-group path:nth-child(16) { animation-delay: 0.2s; }

        /* Text/Details (The rest) */
        #Rss-logo-group path:nth-child(n+6) { animation-delay: 0.25s; }

        /* The Sheen Animation */
        #sheen-rect {
            opacity: 0;
            animation: luxurySwipe 3s ease-in-out 2.5s infinite;
        }

        /* KEYFRAMES */
        @keyframes cinematicFocus {
            0% {
                opacity: 0;
                transform: translateY(60px) scale(1.1);
                filter: blur(2px);
            }
            100% {
                opacity: 1;
                transform: translateY(0) scale(1);
                filter: blur(0px); /* Sharp finish */
            }
        }

        @keyframes luxurySwipe {
            0% {
                transform: translateX(-100%) skewX(-20deg);
                opacity: 0;
            }
            20% { opacity: 1; }
            50% { opacity: 1; }
            100% {
                transform: translateX(100%) skewX(-20deg);
                opacity: 0;
            }
        }
    </style>

    <!-- Main Logo Group -->
    <g id="Rss-logo-group" transform="matrix(14.313955,0,0,14.313955,1552.560202,1070.757855)">
        <path d="M62.001,10.508C61.189,13.676 60.894,13.548 59.567,16.533C59.052,17.692 56.572,22.86 56.309,23.408C52.814,30.691 51.246,29.998 41.5,29.983C30.562,29.966 30.381,30.251 28.282,28.855C28.28,28.854 26.824,28.934 23.593,21.454C21.736,17.156 17.426,11.152 19.547,8.539C20.605,7.234 22.14,7.451 34.5,7.451C59.389,7.453 59.459,7.419 60.296,7.897C61.859,8.789 61.984,10.463 62.001,10.508L37.584,14.118C33.904,12.458 33.815,12.722 33.492,12.715C29.833,12.64 29.617,14.323 29.679,16.504C29.781,20.115 29.637,20.135 29.766,20.42C30.414,21.861 31.185,21.302 31.297,21.221C31.297,21.221 31.754,19.853 31.794,19.734C33.06,18.966 33.037,18.847 33.144,18.915C33.419,19.089 33.304,19.184 33.551,19.377C33.772,19.551 34.067,19.619 34.278,19.804C34.441,19.946 34.502,20.177 34.647,20.336C36.649,22.527 37.974,21.569 38.49,21.557C38.694,21.553 40.786,22.015 41.509,21.957C41.86,21.928 42.193,21.77 42.544,21.742C42.492,20.992 42.44,20.241 42.387,19.491C42.26,19.517 41.73,20.106 40.469,19.885C37.041,19.284 36.186,19.89 36.321,18.474C36.392,17.735 37.227,17.268 37.341,17.204C37.635,17.039 37.986,16.994 38.281,16.829C38.048,15.926 37.816,15.022 37.584,14.118L62.001,10.508L40.464,13.035C40.139,13.179 39.772,13.212 39.447,13.356C38.269,13.877 38.423,14.113 38.317,14.141C38.08,14.203 37.82,14.056 37.584,14.118C37.816,15.022 38.048,15.926 38.281,16.829C39.757,17.945 39.803,17.838 41.525,18.456C42.317,18.74 42.384,19.487 42.387,19.491C42.44,20.241 42.492,20.992 42.544,21.742C43.163,21.504 43.781,21.266 44.4,21.028C44.408,20.862 44.52,20.712 44.528,20.546C44.536,20.387 44.518,20.399 44.395,18.564C44.213,18.33 44.14,17.639 42.67,17.001C42.28,16.832 41.87,16.715 41.474,16.561C40.282,16.098 40.542,15.775 40.239,15.52C40.314,14.692 40.389,13.863 40.464,13.035L62.001,10.508L45.746,13.97C45.183,15.604 44.638,15.836 45.842,17.068C46.468,17.708 46.555,17.556 48.565,18.388C49.618,18.823 49.352,19.337 49.486,19.499C49.814,20.144 50.141,20.79 50.469,21.435C50.737,21.059 51.197,20.849 51.465,20.473C52.286,19.322 51.508,17.437 50.132,16.951C48.039,16.211 47.641,16.56 47.395,15.501C47.319,15.175 47.563,14.826 47.487,14.5L46.482,13.458L45.746,13.97L62.001,10.508L44.395,18.564C44.518,20.399 44.536,20.387 44.528,20.546C44.52,20.712 44.408,20.862 44.4,21.028C46.304,21.579 46.291,21.576 46.456,21.623C49.296,22.423 49.806,21.619 50.469,21.435C50.141,20.79 49.814,20.144 49.486,19.499C49.056,19.572 49.102,20.011 47.455,19.846C46.145,19.714 46.22,19.487 44.395,18.564L62.001,10.508L46.482,13.458L47.487,14.5C48.096,14.648 48.04,14.759 48.639,14.904C48.77,14.936 49.985,15.232 50.295,15.183C50.693,15.12 51.079,14.835 51.282,14.488C51.598,13.948 50.66,13.458 50.569,13.411C48.438,12.297 47.435,13.158 46.482,13.458L62.001,10.508L40.464,13.035C40.389,13.863 40.314,14.692 40.239,15.52C40.48,15.413 40.964,14.701 42.763,14.995C43.007,15.035 43.276,15.375 43.47,15.221C43.581,15.133 43.474,15.104 43.53,13.454C42.914,13.267 42.984,13.145 42.378,12.961C42.309,12.94 41.899,12.816 41.48,12.832C41.135,12.845 40.809,13.022 40.464,13.035L46.5,26.933Z" style="fill:rgb(39,41,141);"/>
        <path d="M46.5,26.933C32.022,26.955 31.879,27.146 30.695,26.23C28.69,24.68 28.4,23.063 23.893,14.304C23.785,14.094 22.769,12.119 22.819,11.551C22.833,11.391 23.078,11.359 23.194,11.248C24.093,10.388 24.247,10.792 25.502,10.81C27.4,10.838 33.965,10.756 52.5,10.813C54.327,10.818 57.444,10.503 57.626,11.448C57.791,12.3 57.642,12.309 53.29,21.397C50.65,26.909 49.982,26.802 46.5,26.933L37.584,14.118C33.904,12.458 33.815,12.722 33.492,12.715C29.833,12.64 29.617,14.323 29.679,16.504C29.781,20.115 29.637,20.135 29.766,20.42C30.414,21.861 31.185,21.302 31.297,21.221C31.297,21.221 31.754,19.853 31.794,19.734C33.06,18.966 33.037,18.847 33.144,18.915C33.419,19.089 33.304,19.184 33.551,19.377C33.772,19.551 34.067,19.619 34.278,19.804C34.441,19.946 34.502,20.177 34.647,20.336C36.649,22.527 37.974,21.569 38.49,21.557C38.694,21.553 40.786,22.015 41.509,21.957C41.86,21.928 42.193,21.77 42.544,21.742C42.492,20.992 42.44,20.241 42.387,19.491C42.26,19.517 41.73,20.106 40.469,19.885C37.041,19.284 36.186,19.89 36.321,18.474C36.392,17.735 37.227,17.268 37.341,17.204C37.635,17.039 37.986,16.994 38.281,16.829C38.048,15.926 37.816,15.022 37.584,14.118L46.5,26.933L40.464,13.035C40.139,13.179 39.772,13.212 39.447,13.356C38.269,13.877 38.423,14.113 38.317,14.141C38.08,14.203 37.82,14.056 37.584,14.118C37.816,15.022 38.048,15.926 38.281,16.829C39.757,17.945 39.803,17.838 41.525,18.456C42.317,18.74 42.384,19.487 42.387,19.491C42.44,20.241 42.492,20.992 42.544,21.742C43.163,21.504 43.781,21.266 44.4,21.028C44.408,20.862 44.52,20.712 44.528,20.546C44.536,20.387 44.518,20.399 44.395,18.564C44.213,18.33 44.14,17.639 42.67,17.001C42.28,16.832 41.87,16.715 41.474,16.561C40.282,16.098 40.542,15.775 40.239,15.52C40.314,14.692 40.389,13.863 40.464,13.035L46.5,26.933L45.746,13.97C45.183,15.604 44.638,15.836 45.842,17.068C46.468,17.708 46.555,17.556 48.565,18.388C49.618,18.823 49.352,19.337 49.486,19.499C49.814,20.144 50.141,20.79 50.469,21.435C50.737,21.059 51.197,20.849 51.465,20.473C52.286,19.322 51.508,17.437 50.132,16.951C48.039,16.211 47.641,16.56 47.395,15.501C47.319,15.175 47.563,14.826 47.487,14.5L46.482,13.458L45.746,13.97L46.5,26.933L44.395,18.564C44.518,20.399 44.536,20.387 44.528,20.546C44.52,20.712 44.408,20.862 44.4,21.028C46.304,21.579 46.291,21.576 46.456,21.623C49.296,22.423 49.806,21.619 50.469,21.435C50.141,20.79 49.814,20.144 49.486,19.499C49.056,19.572 49.102,20.011 47.455,19.846C46.145,19.714 46.22,19.487 44.395,18.564L46.5,26.933L46.482,13.458L47.487,14.5C48.096,14.648 48.04,14.759 48.639,14.904C48.77,14.936 49.985,15.232 50.295,15.183C50.693,15.12 51.079,14.835 51.282,14.488C51.598,13.948 50.66,13.458 50.569,13.411C48.438,12.297 47.435,13.158 46.482,13.458L46.5,26.933L40.464,13.035C40.389,13.863 40.314,14.692 40.239,15.52C40.48,15.413 40.964,14.701 42.763,14.995C43.007,15.035 43.276,15.375 43.47,15.221C43.581,15.133 43.474,15.104 43.53,13.454C42.914,13.267 42.984,13.145 42.378,12.961C42.309,12.94 41.899,12.816 41.48,12.832C41.135,12.845 40.809,13.022 40.464,13.035L46.5,26.933Z" style="fill:rgb(249,136,35);"/>
        <path d="M25.42,35.771C25.1,35.691 24.756,35.755 24.437,35.675C22.654,35.231 22.476,32.569 25.493,32.402C26.799,32.329 51.931,32.861 54.406,32.143C57.413,31.271 57.873,28.059 59.775,24.641C60.959,22.513 69.262,5.645 69.918,4.846C72.182,2.09 80.021,1.701 79.821,4.538C79.735,5.76 77.761,5.902 77.549,5.917C74.452,6.14 73.911,5.728 72.478,8.488C71.956,9.494 71.786,9.381 71.335,10.416C70.5,12.332 68.858,15.167 68.625,15.57C68.008,16.636 62.999,26.352 62.51,27.505C62.422,27.712 60.263,32.077 60.151,32.232C59.833,32.673 57.789,34.691 57.202,35.013C55.536,35.925 55.442,35.595 53.541,35.707C53.228,35.633 52.889,35.764 52.576,35.69C52.156,35.59 51.789,35.333 51.381,35.195C50.188,34.792 49.584,35.498 49.487,35.53C49.158,35.636 48.785,35.538 48.457,35.644C44.639,35.859 34.139,35.846 30.544,35.652C30.207,35.565 29.846,35.609 29.509,35.521C29.134,35.423 28.805,35.177 28.425,35.099C28.156,35.044 27.864,35.045 27.604,35.131C26.946,35.346 27.061,35.568 26.385,35.766C25.908,35.906 25.905,35.628 25.42,35.771Z" style="fill:rgb(247,132,33);"/>
        <path d="M42.637,48.437C42.633,47.715 42.049,43.591 46.529,42.741C47.873,42.485 52.436,42.863 52.556,46.477C52.628,48.663 52.889,48.802 51.558,50.562C49.931,52.715 44.55,52.845 42.845,49.293C42.718,49.028 42.764,48.702 42.637,48.437L45.885,49.136C47.6,49.765 47.79,50.334 49.205,49.191C49.564,48.901 50.841,47.176 49.307,45.697C47.906,44.346 44.101,45.587 45.44,48.533C45.543,48.76 45.781,48.909 45.885,49.136L42.637,48.437Z" style="fill:rgb(49,52,155);fill-opacity:0.95;"/>
        <path d="M55.804,51.067C55.531,50.725 55.141,50.488 54.868,50.146C54.232,49.349 54.327,46.738 54.338,46.439C54.492,42.218 61.231,41.546 63.459,44.535C64.156,45.469 65.346,50.063 61.572,51.661C58.472,52.973 56.022,51.175 55.804,51.067L60.999,48.974C61.104,48.776 61.341,48.668 61.445,48.47C62.813,45.872 59.341,44.27 57.633,45.648C55.504,47.367 57.827,50.705 60.441,49.403C60.651,49.298 60.789,49.079 60.999,48.974L55.804,51.067Z" style="fill:rgb(49,52,155);fill-opacity:0.96;"/>
        <path d="M67.55,52.034C67.271,51.753 66.76,51.8 66.481,51.519C66.089,51.124 66.135,49.677 66.141,49.515C66.315,44.094 65.943,43.982 66.45,43.451C67.43,42.425 73.895,42.389 74.693,45.386C76.817,53.365 67.897,52.049 67.55,52.034L71.918,48.867C71.959,48.787 72.957,48.036 72.408,46.543C72.158,45.864 72.12,45.869 71.448,45.582C70.462,45.163 70.434,45.054 69.425,45.387C69.186,45.465 68.483,45.697 68.776,48.462C68.799,48.68 69.012,50.69 71.38,49.323C71.584,49.205 71.715,48.984 71.918,48.867L67.55,52.034Z" style="fill:rgb(49,52,155);fill-opacity:0.96;"/>
        <path d="M5.514,49.526C4.591,51.422 4.742,51.507 4.598,51.62C3.47,52.502 2.736,51.514 2.642,51.388C2.224,50.826 2.192,44.275 2.695,43.643C2.852,43.444 3.184,42.762 6.496,42.817C7.262,42.83 10.684,42.728 10.456,46.488C10.397,47.463 9.452,48.438 9.775,49.428C9.907,49.833 10.246,50.15 10.378,50.555C10.375,50.93 10.678,51.265 10.675,51.64C10.669,52.272 8.85,52.348 7.744,51.223C7.627,51.104 7.673,51.07 6.458,49.578C6.143,49.561 5.828,49.543 5.514,49.526L6.514,45.031C6.312,45.086 6.089,44.944 5.887,45C5.751,45.037 4.87,45.277 5.278,46.655C5.361,46.933 6.659,47.259 7.27,47.01C7.393,46.96 8.46,46.525 7.642,45.399C7.41,45.079 6.746,45.351 6.514,45.031L5.514,49.526Z" style="fill:rgb(48,51,155);fill-opacity:0.96;"/>
        <path d="M79.178,27.117C75.876,28.183 75.799,27.634 68.498,27.671C66.031,27.684 64.547,27.776 65.673,25.588C65.76,25.418 65.945,25.319 66.073,25.176C67.182,23.941 67.43,24.187 74.5,24.185C74.513,24.185 78.396,23.979 79.261,24.752C79.371,24.851 79.993,25.407 79.623,26.563C79.551,26.788 79.251,26.891 79.178,27.117Z" style="fill:rgb(46,48,146);"/>
        <path d="M24.888,44.805C24.881,45.112 24.298,45.2 24.292,45.507C24.275,46.303 26.666,46.586 27.689,47.227C30.622,49.064 27.999,52.508 24.525,52.111C21.546,51.771 21.514,50.771 21.506,50.497C21.502,50.377 21.468,49.312 22.422,49.308C23.531,49.304 23.393,49.911 24.507,49.92C24.65,49.921 28.079,49.531 24.641,48.14C24.087,47.916 20.836,47.326 21.734,44.619C21.75,44.573 22.438,43.475 22.466,43.452C23.718,42.424 28.741,42.367 28.503,44.501C28.402,45.403 28.156,45.431 27.264,45.221C27.018,45.163 26.814,44.977 26.569,44.916C26.569,44.916 25.022,44.814 24.888,44.805Z" style="fill:rgb(48,52,154);fill-opacity:0.98;"/>
        <path d="M77.71,47.31C77.583,46.908 77.392,47.033 77.267,46.638C77.219,46.489 76.835,45.275 76.888,44.716C77.125,42.265 84.115,41.92 83.677,44.553C83.628,44.847 83.448,45.175 83.173,45.292C82.802,45.451 82.393,44.909 80.582,44.794C79.359,44.717 79.027,45.391 79.991,46.167C80.014,46.186 83.153,47.156 83.495,47.504C85.543,49.59 82.739,53.785 77.538,51.437C75.713,50.614 77.253,49.455 77.343,49.302C80.399,50.088 80.557,49.995 80.799,49.854C81.748,49.3 81.592,48.819 80.586,48.387C80.36,48.29 80.351,48.327 77.71,47.31Z" style="fill:rgb(49,53,155);fill-opacity:0.99;"/>
        <path d="M18.239,45.177C17.959,45.114 17.812,44.869 16.547,44.795C15.255,44.719 14.838,45.413 15.861,46.191C16.136,46.401 16.16,46.34 18.138,46.856C19.943,48.136 20.144,48.381 19.503,50.503C18.738,53.039 13.07,51.821 12.641,51.213C12.565,51.105 12.637,51.097 12.578,49.559C12.862,49.57 13.091,49.248 13.375,49.259C13.759,49.273 14.1,49.515 14.467,49.629C14.609,49.672 15.893,50.068 16.285,50.003C16.459,49.974 18.39,49.075 15.424,47.968C14.829,47.746 14.172,47.688 13.604,47.403C12.613,46.905 12.734,44.868 12.748,44.637C12.893,42.192 18.926,42.492 19.357,43.616C19.456,43.875 19.262,44.162 19.202,44.433C18.966,45.503 18.373,45.074 18.239,45.177Z" style="fill:rgb(49,52,154);fill-opacity:0.98;"/>
        <path d="M40.539,48.576C39.529,48.696 39.558,48.778 38.553,48.813C37.138,48.861 37.337,49.31 36.909,50.638C36.564,51.705 36.604,51.99 35.472,51.956C34.135,51.915 34.139,49.734 34.14,49.512C34.149,44.358 33.811,43.046 36.509,42.884C40.657,42.636 40.629,43.059 40.791,43.198C41.99,44.189 41.16,44.669 39.605,44.859C39.261,44.901 38.912,44.864 38.566,44.881C38.399,44.889 36.765,44.969 37,46.266C37.096,46.793 40.133,46.643 40.293,46.763C40.474,46.899 40.547,47.436 40.555,47.498C40.629,48.037 40.464,48.024 40.539,48.576Z" style="fill:rgb(48,51,154);fill-opacity:0.95;"/>
        <path d="M79.208,20.193C78.966,20.281 78.773,20.476 78.531,20.563C77.5,20.935 74.862,20.834 72.498,20.837C69.848,20.841 68.18,20.807 69.586,18.557C70.492,17.107 72.907,17.341 76.501,17.368C76.766,17.37 79.351,17.389 79.637,18.437C79.791,19.003 79.676,19.473 79.655,19.561C79.559,19.951 79.304,19.801 79.208,20.193Z" style="fill:rgb(45,48,145);"/>
        <path d="M25.42,35.771C25.905,35.628 25.908,35.906 26.385,35.766C27.061,35.568 26.946,35.346 27.604,35.131C27.864,35.045 28.156,35.044 28.425,35.099C28.805,35.177 29.134,35.423 29.509,35.521C29.846,35.609 30.207,35.565 30.544,35.652C30.55,35.975 30.723,36.281 30.729,36.604C30.734,36.905 30.594,37.193 30.576,37.493C30.551,37.9 30.971,38.687 29.736,39.784C28.211,41.138 25.884,40.052 25.781,38.466C25.759,38.128 25.994,38.103 25.42,35.771Z" style="fill:rgb(240,136,35);fill-opacity:0.67;"/>
        <path d="M43.53,13.454C44.269,13.626 45.007,13.798 45.746,13.97C45.183,15.604 44.638,15.836 45.842,17.068C46.468,17.708 46.555,17.556 48.565,18.388C49.618,18.823 49.352,19.337 49.486,19.499C49.056,19.572 49.102,20.011 47.455,19.846C46.145,19.714 46.22,19.487 44.395,18.564C44.213,18.33 44.14,17.639 42.67,17.001C42.28,16.832 41.87,16.715 41.474,16.561C40.282,16.098 40.542,15.775 40.239,15.52C40.48,15.413 40.964,14.701 42.763,14.995C43.007,15.035 43.276,15.375 43.47,15.221C43.581,15.133 43.474,15.104 43.53,13.454Z" style="fill:rgb(243,134,34);fill-opacity:0.92;"/>
        <path d="M48.457,35.644C48.785,35.538 49.158,35.636 49.487,35.53C49.584,35.498 50.188,34.792 51.381,35.195C51.789,35.333 52.156,35.59 52.576,35.69C52.889,35.764 53.228,35.633 53.541,35.707C53.364,36.612 53.232,36.564 53.056,37.463C52.945,38.031 53.095,38.029 52.977,38.59C52.523,40.741 50.354,40.704 49.271,39.784C48.002,38.706 48.406,37.846 48.38,37.489C48.358,37.194 48.207,36.912 48.22,36.617C48.234,36.284 48.443,35.978 48.457,35.644Z" style="fill:rgb(225,133,31);fill-opacity:0.64;"/>
        <path d="M77.468,14.004C77.231,14.006 74.51,14.026 74.51,14.026C72.935,14.059 72.293,14.079 72.606,12.524C72.994,10.599 75.715,10.626 77.487,10.709C77.719,10.72 79.977,10.826 79.743,12.548C79.635,13.349 78.737,13.686 78.614,13.732C78.246,13.869 77.836,13.867 77.468,14.004Z" style="fill:rgb(47,50,154);fill-opacity:0.97;"/>
        <path d="M38.281,16.829C39.757,17.945 39.803,17.838 41.525,18.456C42.317,18.74 42.384,19.487 42.387,19.491C42.26,19.517 41.73,20.106 40.469,19.885C37.041,19.284 36.186,19.89 36.321,18.474C36.392,17.735 37.227,17.268 37.341,17.204C37.635,17.039 37.986,16.994 38.281,16.829Z" style="fill:rgb(247,135,33);fill-opacity:0.96;"/>
        <path d="M32.084,16.827C32.077,16.541 31.811,16.66 31.804,16.376C31.802,16.286 31.787,15.675 32.045,15.277C32.656,14.333 36.807,14.949 34.742,16.819C34.225,17.288 34.165,17.119 33.45,17.135C32.345,17.161 32.363,16.89 32.084,16.827Z" style="fill:rgb(247,133,32);"/>
    </g>

    <!-- The Gloss Overlay: Rendered over the top -->
    <rect id="sheen-rect" width="100%" height="100%" fill="url(#luxury-sheen)" mask="url(#logo-mask)" style="pointer-events: none;" />

</svg>